HIERARCHY
ROOT joint_0
{
	OFFSET 0.000000 0.000000 0.000000
	CHANNELS 6 Xposition Yposition Zposition Zrotation Yrotation Xrotation 
	JOINT joint_1
	{
		OFFSET 11.612000 -0.419000 106.198000
		CHANNELS 3 Zrotation Yrotation Xrotation
		JOINT joint_2
		{
			OFFSET -1.708000 -1.022000 97.564090
			CHANNELS 3 Zrotation Yrotation Xrotation
			JOINT joint_3
			{
				OFFSET -4.121000 -1.538000 97.375000
				CHANNELS 3 Zrotation Yrotation Xrotation
				JOINT joint_4
				{
					OFFSET 5.442000 -2.123000 132.795900
					CHANNELS 3 Zrotation Yrotation Xrotation
					JOINT joint_5
					{
						OFFSET 21.935000 0.195000 82.975100
						CHANNELS 3 Zrotation Yrotation Xrotation
						End Site
						{
							OFFSET 0.000000 0.000000 0.000000
						}
					}
				}
				JOINT joint_6
				{
					OFFSET 4.262000 -30.048000 73.899900
					CHANNELS 3 Zrotation Yrotation Xrotation
					JOINT joint_7
					{
						OFFSET 9.731000 -136.810010 -21.963010
						CHANNELS 3 Zrotation Yrotation Xrotation
						JOINT joint_8
						{
							OFFSET 33.360000 -35.709000 -267.597900
							CHANNELS 3 Zrotation Yrotation Xrotation
							JOINT joint_9
							{
								OFFSET 36.156000 -29.759000 -240.558040
								CHANNELS 3 Zrotation Yrotation Xrotation
								End Site
								{
									OFFSET 0.000000 0.000000 0.000000
								}
							}
						}
					}
				}
				JOINT joint_10
				{
					OFFSET 2.027000 27.734000 74.914920
					CHANNELS 3 Zrotation Yrotation Xrotation
					JOINT joint_11
					{
						OFFSET -5.183000 136.784000 -23.604980
						CHANNELS 3 Zrotation Yrotation Xrotation
						JOINT joint_12
						{
							OFFSET 29.806000 37.229000 -267.809940
							CHANNELS 3 Zrotation Yrotation Xrotation
							JOINT joint_13
							{
								OFFSET 36.890000 46.524990 -237.772030
								CHANNELS 3 Zrotation Yrotation Xrotation
								End Site
								{
									OFFSET 0.000000 0.000000 0.000000
								}
							}
						}
					}
				}
			}
		}
	}
	JOINT joint_14
	{
		OFFSET -7.290000 -102.873990 -124.314940
		CHANNELS 3 Zrotation Yrotation Xrotation
		JOINT joint_15
		{
			OFFSET -15.466000 -19.909010 -438.533020
			CHANNELS 3 Zrotation Yrotation Xrotation
			JOINT joint_16
			{
				OFFSET -26.899000 -18.922000 -464.797000
				CHANNELS 3 Zrotation Yrotation Xrotation
				JOINT joint_17
				{
					OFFSET 179.329000 -12.011000 -84.174000
					CHANNELS 3 Zrotation Yrotation Xrotation
					End Site
					{
						OFFSET 0.000000 0.000000 0.000000
					}
				}
			}
		}
	}
	JOINT joint_18
	{
		OFFSET -6.225000 101.546000 -125.479980
		CHANNELS 3 Zrotation Yrotation Xrotation
		JOINT joint_19
		{
			OFFSET -13.973000 7.996000 -438.963010
			CHANNELS 3 Zrotation Yrotation Xrotation
			JOINT joint_20
			{
				OFFSET -44.294000 5.716000 -463.813970
				CHANNELS 3 Zrotation Yrotation Xrotation
				JOINT joint_21
				{
					OFFSET 178.505000 -4.689000 -85.139000
					CHANNELS 3 Zrotation Yrotation Xrotation
					End Site
					{
						OFFSET 0.000000 0.000000 0.000000
					}
				}
			}
		}
	}
}
MOTION
Frames: 7
Frame Time: 0.016667
-62.708000 -13.929000 1128.948000 -0.032465 -3.742590 0.565559 -0.757391 2.916063 1.303420 -0.824779 -0.597343 -0.343341 -0.782913 0.615028 0.189104 0.126828 0.822364 -0.484031 0.000000 0.000000 0.000000 0.218500 -0.490903 1.191472 0.030880 -0.564165 -0.248247 -0.138068 0.313030 -0.661357 0.000000 0.000000 0.000000 -0.250047 -1.038568 -0.462714 -0.154456 -1.076213 -1.903445 0.686458 2.235805 1.559942 0.000000 0.000000 0.000000 -0.863027 2.706630 0.923779 -0.767097 1.664797 -0.503714 -0.547724 -3.771925 -0.509536 0.000000 0.000000 0.000000 1.571673 2.390151 0.713794 1.523071 -1.185087 0.295093 1.516990 1.722061 0.766284 0.000000 0.000000 0.000000 
-61.776000 -13.894000 1129.105960 -0.032899 -3.514260 0.592808 -0.829586 3.060987 1.366120 -0.900665 -0.622448 -0.378378 -0.855676 0.631703 0.213396 0.132217 0.533006 -0.502008 0.000000 0.000000 0.000000 0.570577 -0.526173 1.131170 0.012839 -0.546594 -0.404336 -0.075555 0.097549 -0.422461 0.000000 0.000000 0.000000 0.125168 -0.897047 -0.373669 -0.186534 -1.010755 -1.965493 0.575533 2.005679 1.146911 0.000000 0.000000 0.000000 -0.845172 2.543925 0.882649 -0.755466 1.593404 -0.476298 -0.537222 -3.777345 -0.505023 0.000000 0.000000 0.000000 1.567658 2.227685 0.695720 1.520776 -1.264063 0.260123 1.513023 1.769988 0.765750 0.000000 0.000000 0.000000 
-59.773000 -14.090000 1129.537960 -0.000620 -2.979169 0.628970 -0.934846 3.339602 1.417987 -1.011332 -0.688539 -0.422722 -0.961243 0.679594 0.245953 0.135947 -0.224929 -0.509551 0.000000 0.000000 0.000000 0.573189 -0.506639 0.598043 0.039474 -0.476802 -0.184364 0.101627 -0.626333 0.153737 0.000000 0.000000 0.000000 -0.106388 -0.342859 0.362239 -0.271136 -0.473917 -2.349782 0.181871 0.865330 0.070559 0.000000 0.000000 0.000000 -0.825358 2.153659 0.854006 -0.746420 1.426521 -0.472526 -0.535116 -3.761698 -0.503067 0.000000 0.000000 0.000000 1.535574 1.853377 0.697766 1.492694 -1.502164 0.189799 1.484466 1.938053 0.756736 0.000000 0.000000 0.000000 
-56.950000 -14.441000 1130.104980 0.039808 -2.255244 0.672238 -1.057051 3.677273 1.458193 -1.139630 -0.752685 -0.473920 -1.083814 0.716343 0.285550 0.135379 -1.282894 -0.489728 0.000000 0.000000 0.000000 0.378570 -0.430934 -0.149277 0.085182 -0.359228 0.194100 0.347536 -1.628753 0.936348 0.000000 0.000000 0.000000 -0.628248 0.449566 1.355050 -0.366646 0.335342 -2.855732 -0.356242 -0.806761 -1.294241 0.000000 0.000000 0.000000 -0.801086 1.634925 0.830643 -0.735341 1.195424 -0.481385 -0.534598 -3.738299 -0.501346 0.000000 0.000000 0.000000 1.491784 1.363195 0.707898 1.453739 -1.841397 0.105791 1.446406 2.164943 0.744745 0.000000 0.000000 0.000000 
-53.265000 -14.943000 1130.484010 0.021224 -1.517279 0.718904 -1.154130 3.866220 1.457795 -1.239834 -0.767212 -0.494968 -1.181868 0.711351 0.301757 0.136772 -2.383206 -0.462018 0.000000 0.000000 0.000000 0.226871 -0.231633 -0.671925 0.102319 -0.131668 0.436774 0.572818 -2.529404 1.642861 0.000000 0.000000 0.000000 -1.102396 1.162436 2.046393 -0.403673 1.086766 -3.200256 -0.754764 -2.108947 -2.289824 0.000000 0.000000 0.000000 -0.759712 1.161757 0.814813 -0.703538 0.935210 -0.498882 -0.514784 -3.734340 -0.491864 0.000000 0.000000 0.000000 1.466234 0.938468 0.698878 1.429363 -2.207085 0.070991 1.426625 2.300812 0.739008 0.000000 0.000000 0.000000 
-48.387000 -15.662000 1130.571040 -0.089495 -0.771127 0.766382 -1.221172 3.794042 1.382146 -1.304368 -0.723937 -0.450910 -1.250710 0.668556 0.270208 0.152576 -3.600210 -0.469296 0.000000 0.000000 0.000000 0.248685 0.202456 -0.790512 0.061393 0.320284 0.413817 0.785830 -3.390746 2.281361 0.000000 0.000000 0.000000 -1.510108 1.754396 2.298555 -0.371055 1.743012 -3.322890 -0.945811 -2.757787 -2.771632 0.000000 0.000000 0.000000 -0.689263 0.783471 0.820803 -0.633444 0.597739 -0.541732 -0.461441 -3.749598 -0.467916 0.000000 0.000000 0.000000 1.466911 0.641317 0.647685 1.423097 -2.647632 0.139762 1.433837 2.297377 0.742365 0.000000 0.000000 0.000000 
-42.648000 -16.532000 1130.472050 -0.258235 -0.008523 0.813649 -1.264464 3.575671 1.266800 -1.342066 -0.649943 -0.372992 -1.296104 0.606666 0.215237 0.175981 -4.864746 -0.484884 0.000000 0.000000 0.000000 0.353079 0.761755 -0.652023 -0.008961 0.884147 0.215123 0.975297 -4.158027 2.829830 0.000000 0.000000 0.000000 -1.934133 2.264776 2.300840 -0.301907 2.340106 -3.314428 -1.011883 -2.978858 -2.954334 0.000000 0.000000 0.000000 -0.601885 0.448439 0.834129 -0.542709 0.230331 -0.592481 -0.389355 -3.774549 -0.435791 0.000000 0.000000 0.000000 1.485508 0.406659 0.575991 1.430950 -3.114321 0.260183 1.459160 2.210995 0.752062 0.000000 0.000000 0.000000 
